<svg width="512" height="512" viewBox="0 0 512 512" fill="none" xmlns="http://www.w3.org/2000/svg">
  <rect width="512" height="512" rx="72" fill="url(#bg)"/>
  <circle cx="382" cy="124" r="106" fill="#A855F7" fill-opacity="0.32"/>
  <circle cx="140" cy="352" r="164" fill="#06B6D4" fill-opacity="0.24"/>
  <path d="M130 180C174 168 219 166 260 178C317 196 350 237 392 254C417 264 437 267 454 266" stroke="#E0F2FE" stroke-opacity="0.85" stroke-width="16" stroke-linecap="round"/>
  <path d="M82 272C144 256 203 260 258 284C312 307 348 349 402 365" stroke="white" stroke-opacity="0.64" stroke-width="14" stroke-linecap="round"/>
  <path d="M112 384C171 366 218 370 257 394C290 415 316 448 360 454" stroke="#C4B5FD" stroke-opacity="0.8" stroke-width="12" stroke-linecap="round"/>
  <defs>
    <linearGradient id="bg" x1="66" y1="48" x2="420" y2="472" gradientUnits="userSpaceOnUse">
      <stop stop-color="#08111F"/>
      <stop offset="0.52" stop-color="#113B4D"/>
      <stop offset="1" stop-color="#3B0764"/>
    </linearGradient>
  </defs>
</svg>
