<svg width="512" height="512" viewBox="0 0 512 512" fill="none" xmlns="http://www.w3.org/2000/svg">
  <rect width="512" height="512" rx="72" fill="url(#bg)"/>
  <circle cx="110" cy="126" r="126" fill="#F472B6" fill-opacity="0.26"/>
  <circle cx="378" cy="330" r="172" fill="#8B5CF6" fill-opacity="0.28"/>
  <path d="M108 196C150 188 190 188 228 202C278 220 318 258 370 268C398 273 425 272 452 266" stroke="#FAE8FF" stroke-opacity="0.82" stroke-width="16" stroke-linecap="round"/>
  <path d="M84 312C144 290 205 286 266 302C326 317 373 349 426 392" stroke="white" stroke-opacity="0.7" stroke-width="16" stroke-linecap="round"/>
  <path d="M124 380C172 362 218 359 260 370C302 381 338 404 376 438" stroke="#FBCFE8" stroke-opacity="0.75" stroke-width="12" stroke-linecap="round"/>
  <defs>
    <linearGradient id="bg" x1="64" y1="44" x2="424" y2="470" gradientUnits="userSpaceOnUse">
      <stop stop-color="#16081E"/>
      <stop offset="0.48" stop-color="#581C87"/>
      <stop offset="1" stop-color="#1D4ED8"/>
    </linearGradient>
  </defs>
</svg>
